<svg version="1.1" xmlns="http://www.w3.org/2000/svg" viewBox="0 0 111.02324428724899 138.5719775103537" width="111.02324428724899" height="138.5719775103537">
  <!-- svg-source:excalidraw -->
  
  <defs>
    <style class="style-fonts">
      @font-face {
        font-family: "Virgil";
        src: url("https://excalidraw.com/Virgil.woff2");
      }
      @font-face {
        font-family: "Cascadia";
        src: url("https://excalidraw.com/Cascadia.woff2");
      }
      @font-face {
        font-family: "Assistant";
        src: url("https://excalidraw.com/Assistant-Regular.woff2");
      }
    </style>
    
  </defs>
  <g stroke-opacity="0.9" fill-opacity="0.9" stroke-linecap="round" transform="translate(15.5352065560877 71.4248138803718) rotate(0 42.74401886558064 28.573581814990945)"><path d="M53.75 7.25 C59.45 11.97, 66.77 15.26, 74.74 21.75 C83.48 27.92, 84.05 25.95, 74.74 36.25 C69.41 42.51, 65.9 39.49, 53.75 49.9 C42.34 60.43, 41.74 57.96, 32.25 49.9 C24.6 45.94, 22.83 43.97, 10.75 36.25 C3.51 31.4, 1.08 30.7, 10.75 21.75 C21.16 15.83, 24.68 8.47, 32.25 7.25 C39.82 2.88, 39.57 2.9, 53.75 7.25" stroke="none" stroke-width="0" fill="#a5d8ff"></path><path d="M53.75 7.25 C61.77 12.23, 70.32 20.01, 74.74 21.75 M53.75 7.25 C61.58 12.35, 70.06 17.23, 74.74 21.75 M74.74 21.75 C85.1 29.21, 83.63 28.5, 74.74 36.25 M74.74 21.75 C86.04 29.23, 84.05 28.85, 74.74 36.25 M74.74 36.25 C70.84 38.34, 66.88 43.49, 53.75 49.9 M74.74 36.25 C67.19 41.12, 59.38 46.37, 53.75 49.9 M53.75 49.9 C41.53 56.52, 44.48 55.35, 32.25 49.9 M53.75 49.9 C45.09 58.45, 42.96 56.01, 32.25 49.9 M32.25 49.9 C26.54 47.17, 19.51 40.18, 10.75 36.25 M32.25 49.9 C27.45 45.84, 21.97 42.45, 10.75 36.25 M10.75 36.25 C-1.97 29.96, 0.99 28.29, 10.75 21.75 M10.75 36.25 C-0.64 29.47, 1.77 29.03, 10.75 21.75 M10.75 21.75 C16.9 17.66, 20.11 15.8, 32.25 7.25 M10.75 21.75 C19.91 15.82, 28.06 10.44, 32.25 7.25 M32.25 7.25 C44.33 0.98, 43.66 0.83, 53.75 7.25 M32.25 7.25 C45.19 -0.71, 41.17 -1.45, 53.75 7.25" stroke="#1e1e1e" stroke-width="1" fill="none"></path></g><g stroke-linecap="round" transform="translate(10 22.858852675790388) rotate(0 45.14512081592409 39.66315123207286)"><path d="M90.29 39.66 C90.29 41.54, 90.14 43.45, 89.83 45.31 C89.53 47.17, 89.06 49.03, 88.46 50.84 C87.86 52.64, 87.1 54.43, 86.21 56.14 C85.32 57.85, 84.28 59.52, 83.12 61.11 C81.97 62.69, 80.67 64.22, 79.26 65.64 C77.86 67.06, 76.33 68.41, 74.71 69.64 C73.09 70.87, 71.35 72.01, 69.55 73.03 C67.75 74.05, 65.85 74.96, 63.9 75.74 C61.95 76.52, 59.92 77.19, 57.86 77.72 C55.81 78.25, 53.69 78.65, 51.57 78.92 C49.45 79.19, 47.29 79.33, 45.15 79.33 C43 79.33, 40.84 79.19, 38.72 78.92 C36.6 78.65, 34.48 78.25, 32.43 77.72 C30.37 77.19, 28.34 76.52, 26.39 75.74 C24.44 74.96, 22.54 74.05, 20.74 73.03 C18.94 72.01, 17.2 70.87, 15.58 69.64 C13.96 68.41, 12.43 67.06, 11.03 65.64 C9.62 64.22, 8.32 62.69, 7.17 61.11 C6.01 59.52, 4.97 57.85, 4.08 56.14 C3.19 54.43, 2.43 52.64, 1.83 50.84 C1.23 49.03, 0.76 47.17, 0.46 45.31 C0.15 43.45, 0 41.54, 0 39.66 C0 37.78, 0.15 35.88, 0.46 34.02 C0.76 32.16, 1.23 30.29, 1.83 28.49 C2.43 26.68, 3.19 24.9, 4.08 23.19 C4.97 21.47, 6.01 19.8, 7.17 18.22 C8.32 16.64, 9.62 15.11, 11.03 13.69 C12.43 12.27, 13.96 10.92, 15.58 9.69 C17.2 8.46, 18.94 7.31, 20.74 6.3 C22.54 5.28, 24.44 4.37, 26.39 3.58 C28.34 2.8, 30.37 2.14, 32.43 1.61 C34.48 1.08, 36.6 0.67, 38.72 0.4 C40.84 0.14, 43 0, 45.15 0 C47.29 0, 49.45 0.14, 51.57 0.4 C53.69 0.67, 55.81 1.08, 57.86 1.61 C59.92 2.14, 61.95 2.8, 63.9 3.58 C65.85 4.37, 67.75 5.28, 69.55 6.3 C71.35 7.31, 73.09 8.46, 74.71 9.69 C76.33 10.92, 77.86 12.27, 79.26 13.69 C80.67 15.11, 81.97 16.64, 83.12 18.22 C84.28 19.8, 85.32 21.47, 86.21 23.19 C87.1 24.9, 87.86 26.68, 88.46 28.49 C89.06 30.29, 89.53 32.16, 89.83 34.02 C90.14 35.88, 90.21 38.72, 90.29 39.66 C90.37 40.6, 90.37 38.72, 90.29 39.66" stroke="none" stroke-width="0" fill="#d2b48c"></path><path d="M90.29 39.66 C90.29 41.54, 90.14 43.45, 89.83 45.31 C89.53 47.17, 89.06 49.03, 88.46 50.84 C87.86 52.64, 87.1 54.43, 86.21 56.14 C85.32 57.85, 84.28 59.52, 83.12 61.11 C81.97 62.69, 80.67 64.22, 79.26 65.64 C77.86 67.06, 76.33 68.41, 74.71 69.64 C73.09 70.87, 71.35 72.01, 69.55 73.03 C67.75 74.05, 65.85 74.96, 63.9 75.74 C61.95 76.52, 59.92 77.19, 57.86 77.72 C55.81 78.25, 53.69 78.65, 51.57 78.92 C49.45 79.19, 47.29 79.33, 45.15 79.33 C43 79.33, 40.84 79.19, 38.72 78.92 C36.6 78.65, 34.48 78.25, 32.43 77.72 C30.37 77.19, 28.34 76.52, 26.39 75.74 C24.44 74.96, 22.54 74.05, 20.74 73.03 C18.94 72.01, 17.2 70.87, 15.58 69.64 C13.96 68.41, 12.43 67.06, 11.03 65.64 C9.62 64.22, 8.32 62.69, 7.17 61.11 C6.01 59.52, 4.97 57.85, 4.08 56.14 C3.19 54.43, 2.43 52.64, 1.83 50.84 C1.23 49.03, 0.76 47.17, 0.46 45.31 C0.15 43.45, 0 41.54, 0 39.66 C0 37.78, 0.15 35.88, 0.46 34.02 C0.76 32.16, 1.23 30.29, 1.83 28.49 C2.43 26.68, 3.19 24.9, 4.08 23.19 C4.97 21.47, 6.01 19.8, 7.17 18.22 C8.32 16.64, 9.62 15.11, 11.03 13.69 C12.43 12.27, 13.96 10.92, 15.58 9.69 C17.2 8.46, 18.94 7.31, 20.74 6.3 C22.54 5.28, 24.44 4.37, 26.39 3.58 C28.34 2.8, 30.37 2.14, 32.43 1.61 C34.48 1.08, 36.6 0.67, 38.72 0.4 C40.84 0.14, 43 0, 45.15 0 C47.29 0, 49.45 0.14, 51.57 0.4 C53.69 0.67, 55.81 1.08, 57.86 1.61 C59.92 2.14, 61.95 2.8, 63.9 3.58 C65.85 4.37, 67.75 5.28, 69.55 6.3 C71.35 7.31, 73.09 8.46, 74.71 9.69 C76.33 10.92, 77.86 12.27, 79.26 13.69 C80.67 15.11, 81.97 16.64, 83.12 18.22 C84.28 19.8, 85.32 21.47, 86.21 23.19 C87.1 24.9, 87.86 26.68, 88.46 28.49 C89.06 30.29, 89.53 32.16, 89.83 34.02 C90.14 35.88, 90.21 38.72, 90.29 39.66 C90.37 40.6, 90.37 38.72, 90.29 39.66" stroke="#846358" stroke-width="1" fill="none"></path></g><g stroke-opacity="0.9" fill-opacity="0.9" stroke-linecap="round" transform="translate(18.423634533547784 48.84311257831632) rotate(0 16.013366573227245 12.220135692622137)"><path d="M15.1 -0.39 C18.33 -0.68, 23.09 0.48, 25.82 2.13 C28.54 3.79, 30.66 6.95, 31.46 9.53 C32.26 12.11, 32.18 15.35, 30.6 17.61 C29.02 19.87, 25.26 22.12, 21.98 23.09 C18.7 24.06, 14.11 24.18, 10.9 23.41 C7.68 22.65, 4.49 20.59, 2.68 18.49 C0.87 16.38, -0.41 13.41, 0.04 10.79 C0.49 8.17, 2.74 4.55, 5.36 2.76 C7.99 0.96, 13.9 0.47, 15.77 0.01 C17.65 -0.45, 16.54 -0.2, 16.61 0.02 M16.07 -0.14 C19.42 -0.41, 24.34 0.54, 27.02 2.34 C29.7 4.15, 31.72 7.91, 32.15 10.67 C32.59 13.43, 31.55 16.61, 29.63 18.92 C27.71 21.22, 23.96 23.72, 20.61 24.5 C17.26 25.28, 12.59 24.58, 9.52 23.61 C6.45 22.64, 3.82 20.86, 2.21 18.66 C0.6 16.46, -0.81 13.01, -0.16 10.4 C0.49 7.79, 3.48 4.68, 6.11 3.02 C8.75 1.36, 13.82 0.8, 15.65 0.45 C17.47 0.1, 16.9 0.87, 17.05 0.89" stroke="none" stroke-width="0" fill="#ffffff"></path><path d="M12.06 0.42 C15.12 -0.38, 19.79 0.12, 22.97 1.3 C26.14 2.47, 29.77 5.09, 31.11 7.45 C32.46 9.81, 32.12 12.89, 31.04 15.44 C29.97 17.99, 27.47 21.21, 24.66 22.74 C21.85 24.27, 17.46 24.89, 14.16 24.61 C10.85 24.34, 7.1 22.95, 4.82 21.08 C2.53 19.22, 0.67 16.13, 0.45 13.43 C0.22 10.73, 1.33 7.14, 3.44 4.87 C5.56 2.61, 11.54 0.58, 13.14 -0.15 C14.75 -0.88, 13.06 0.17, 13.07 0.48 M15.63 -0.64 C18.68 -0.82, 22.79 0.71, 25.6 2.5 C28.4 4.28, 31.62 7.56, 32.44 10.08 C33.26 12.6, 32.42 15.46, 30.51 17.62 C28.6 19.79, 24.28 22.06, 20.97 23.07 C17.66 24.09, 13.69 24.61, 10.65 23.71 C7.62 22.82, 4.57 20.04, 2.75 17.7 C0.93 15.37, -0.8 12.23, -0.26 9.71 C0.27 7.18, 3.25 4.25, 5.98 2.56 C8.71 0.87, 14.38 -0.12, 16.12 -0.41 C17.87 -0.71, 16.45 0.51, 16.45 0.81" stroke="#846358" stroke-width="1" fill="none"></path></g><g stroke-opacity="0.9" fill-opacity="0.9" stroke-linecap="round" transform="translate(64.46296421524016 50.440018373960356) rotate(0 15.599610814884613 12.821874203909886)"><path d="M12.79 -0.28 C15.85 -0.92, 20.71 0.56, 23.61 1.96 C26.5 3.36, 29.05 5.54, 30.16 8.13 C31.27 10.72, 31.47 14.8, 30.26 17.49 C29.06 20.19, 25.74 23.06, 22.92 24.31 C20.09 25.57, 16.5 25.5, 13.32 25.03 C10.14 24.55, 6.1 23.56, 3.84 21.44 C1.59 19.31, -0.22 15.03, -0.22 12.28 C-0.22 9.54, 1.52 7.02, 3.84 4.98 C6.17 2.94, 12.06 0.73, 13.73 0.03 C15.41 -0.66, 14 0.61, 13.89 0.79 M14.52 -0.25 C17.69 -0.44, 23 0.96, 25.61 2.71 C28.22 4.46, 29.65 7.54, 30.19 10.23 C30.73 12.92, 30.39 16.55, 28.87 18.84 C27.36 21.13, 24.18 22.96, 21.13 23.97 C18.07 24.99, 13.73 25.69, 10.55 24.93 C7.36 24.18, 3.69 21.73, 2 19.45 C0.31 17.17, -0.05 13.88, 0.4 11.27 C0.84 8.66, 2.34 5.72, 4.67 3.77 C7 1.83, 12.67 0.18, 14.4 -0.38 C16.13 -0.94, 14.99 0.06, 15.06 0.41" stroke="none" stroke-width="0" fill="#ffffff"></path><path d="M14.62 -0.3 C17.64 -0.65, 21.39 0.73, 24.05 2.34 C26.7 3.95, 29.64 6.75, 30.54 9.38 C31.45 12.01, 30.9 15.59, 29.49 18.1 C28.09 20.61, 25.15 23.27, 22.1 24.46 C19.06 25.65, 14.37 25.97, 11.22 25.24 C8.07 24.52, 5.14 22.32, 3.21 20.14 C1.28 17.95, -0.65 14.79, -0.38 12.14 C-0.12 9.48, 2.24 6.3, 4.79 4.2 C7.34 2.11, 13.15 0.29, 14.9 -0.43 C16.64 -1.15, 15.2 -0.41, 15.28 -0.11 M12.86 0.86 C15.95 0.11, 19.7 0.56, 22.47 1.8 C25.23 3.03, 28.08 5.67, 29.44 8.26 C30.81 10.85, 31.59 14.72, 30.65 17.33 C29.71 19.94, 26.72 22.52, 23.78 23.92 C20.85 25.32, 16.42 26.21, 13.05 25.72 C9.69 25.24, 5.72 23.04, 3.59 21.01 C1.45 18.97, 0.35 16.21, 0.23 13.5 C0.11 10.79, 0.8 7.02, 2.87 4.76 C4.93 2.51, 11.11 0.54, 12.63 -0.06 C14.16 -0.66, 12.1 0.8, 12.02 1.17" stroke="#846358" stroke-width="1" fill="none"></path></g><g stroke-opacity="0.9" fill-opacity="0.9" stroke-linecap="round" transform="translate(74.44184267193691 57.97233250518087) rotate(0 5.51227154173273 6.784667193757571)"><path d="M4.4 0.55 C5.6 0.1, 7.69 -0.1, 8.67 0.49 C9.66 1.07, 9.95 2.61, 10.3 4.07 C10.66 5.53, 11.18 7.73, 10.82 9.24 C10.45 10.76, 9.13 12.42, 8.1 13.18 C7.06 13.94, 5.69 14.24, 4.61 13.82 C3.52 13.41, 2.27 11.9, 1.57 10.68 C0.87 9.46, 0.38 7.81, 0.42 6.49 C0.46 5.17, 1.08 3.8, 1.79 2.75 C2.51 1.7, 4.14 0.61, 4.73 0.2 C5.31 -0.2, 5.38 0.18, 5.33 0.32 M3.97 -0.43 C4.83 -0.85, 6.51 -0.67, 7.5 0.23 C8.49 1.14, 9.4 3.51, 9.93 4.99 C10.46 6.48, 11 7.98, 10.66 9.13 C10.31 10.28, 8.88 11.19, 7.86 11.88 C6.84 12.58, 5.63 13.34, 4.53 13.3 C3.43 13.26, 2.02 12.7, 1.25 11.64 C0.47 10.57, -0.02 8.35, -0.12 6.93 C-0.23 5.5, -0.19 4.26, 0.63 3.06 C1.45 1.86, 4.13 0.08, 4.78 -0.27 C5.42 -0.63, 4.46 0.77, 4.5 0.93" stroke="none" stroke-width="0" fill="#542a0e"></path><path d="M4.98 -0.27 C6.05 -0.4, 7.64 0.64, 8.66 1.47 C9.67 2.29, 10.68 3.41, 11.08 4.68 C11.48 5.94, 11.53 7.64, 11.05 9.05 C10.56 10.46, 9.34 12.33, 8.17 13.12 C7 13.91, 5.17 14.12, 4.05 13.79 C2.93 13.45, 2.18 12.25, 1.48 11.1 C0.77 9.96, -0.11 8.37, -0.17 6.91 C-0.22 5.44, 0.25 3.43, 1.15 2.31 C2.05 1.2, 4.52 0.66, 5.25 0.22 C5.99 -0.23, 5.66 -0.47, 5.56 -0.35 M5.74 -0.14 C6.89 0.02, 9.1 1.63, 9.97 2.82 C10.85 4.01, 10.92 5.67, 10.99 7.01 C11.06 8.34, 11.14 9.78, 10.39 10.84 C9.65 11.9, 7.72 13.08, 6.5 13.38 C5.28 13.68, 4.09 13.42, 3.07 12.63 C2.05 11.84, 0.82 9.87, 0.38 8.64 C-0.06 7.4, 0.05 6.45, 0.43 5.21 C0.81 3.98, 1.57 2.02, 2.68 1.22 C3.79 0.42, 6.52 0.52, 7.08 0.44 C7.64 0.35, 6.2 0.7, 6.04 0.7" stroke="#846358" stroke-width="1" fill="none"></path></g><g stroke-opacity="0.9" fill-opacity="0.9" stroke-linecap="round" transform="translate(34.632490594729234 55.21744414000614) rotate(0 5.51227154173273 6.784667193757571)"><path d="M6.82 0.52 C7.84 0.71, 8.77 1.39, 9.51 2.39 C10.24 3.4, 11.22 5.05, 11.22 6.53 C11.23 8.01, 10.35 10.07, 9.55 11.27 C8.76 12.48, 7.55 13.45, 6.45 13.74 C5.35 14.03, 4.03 13.74, 2.96 13.02 C1.88 12.29, 0.4 10.82, 0.02 9.38 C-0.36 7.94, 0.17 5.81, 0.68 4.38 C1.2 2.95, 2.1 1.55, 3.09 0.8 C4.08 0.04, 5.95 0, 6.64 -0.13 C7.33 -0.26, 7.32 -0.13, 7.23 0.01 M6.91 0.81 C7.99 1.07, 9.25 1.31, 9.96 2.43 C10.67 3.55, 11.21 6.16, 11.15 7.54 C11.08 8.93, 10.3 9.67, 9.57 10.76 C8.84 11.85, 7.86 13.73, 6.75 14.09 C5.65 14.45, 4.11 13.73, 2.93 12.92 C1.75 12.1, 0.14 10.72, -0.33 9.19 C-0.79 7.66, -0.41 5.15, 0.15 3.74 C0.7 2.34, 1.94 1.25, 3.01 0.73 C4.07 0.22, 5.97 0.62, 6.54 0.65 C7.11 0.68, 6.5 1, 6.43 0.91" stroke="none" stroke-width="0" fill="#542a0e"></path><path d="M5.82 0.32 C7 0.41, 8.5 1.5, 9.34 2.52 C10.19 3.54, 10.8 5.04, 10.9 6.45 C11 7.87, 10.62 9.89, 9.95 11.01 C9.28 12.13, 8.07 12.81, 6.87 13.19 C5.67 13.57, 3.86 13.96, 2.75 13.31 C1.64 12.66, 0.58 10.71, 0.23 9.3 C-0.12 7.89, 0.35 6.17, 0.67 4.86 C0.98 3.55, 1.11 2.15, 2.12 1.42 C3.12 0.69, 5.91 0.65, 6.71 0.48 C7.5 0.31, 6.87 0.29, 6.88 0.4 M4.87 0.5 C6.05 0.17, 7.3 -0.09, 8.18 0.65 C9.05 1.39, 9.67 3.68, 10.12 4.95 C10.57 6.22, 11.05 6.91, 10.89 8.26 C10.72 9.61, 10.18 12.1, 9.15 13.04 C8.13 13.98, 6.03 14.21, 4.75 13.9 C3.47 13.59, 2.28 12.38, 1.47 11.17 C0.65 9.95, -0.12 8.1, -0.12 6.61 C-0.13 5.12, 0.62 3.18, 1.45 2.22 C2.27 1.27, 4.36 1.07, 4.82 0.85 C5.29 0.63, 4.42 0.87, 4.25 0.91" stroke="#846358" stroke-width="1" fill="none"></path></g><g stroke-opacity="0.9" fill-opacity="0.9" transform="translate(59.41597167674604 62.1376449361087) rotate(0 -4.09938659113385 7.090323434659098)" stroke="none"><path fill="#a18072" d="M 1.19,0.84 Q 1.19,0.84 0.87,1.84 0.55,2.83 -0.07,4.06 -0.70,5.29 -1.70,6.88 -2.69,8.48 -3.38,9.94 -4.07,11.40 -3.13,11.32 -2.20,11.24 -1.73,11.33 -1.27,11.43 -0.85,11.66 -0.44,11.90 -0.13,12.26 0.18,12.61 0.36,13.05 0.54,13.49 0.58,13.97 0.61,14.44 0.49,14.90 0.37,15.36 0.11,15.76 -0.13,16.16 -0.51,16.45 -0.88,16.75 -1.33,16.91 -1.78,17.07 -2.25,17.08 -2.73,17.08 -3.18,16.94 -3.63,16.80 -4.02,16.52 -4.40,16.24 -4.68,15.85 -4.95,15.46 -5.09,15.00 -5.22,14.55 -5.20,14.07 -5.19,13.60 -5.02,13.15 -4.85,12.71 -4.55,12.34 -4.25,11.97 -3.84,11.72 -3.44,11.47 -2.98,11.35 -2.52,11.24 -2.04,11.29 -1.57,11.33 -1.13,11.52 -0.70,11.71 -0.35,12.03 -0.00,12.36 0.22,12.77 0.45,13.19 0.54,13.66 0.62,14.12 0.56,14.59 0.49,15.06 0.27,15.49 0.06,15.91 -0.27,16.25 -0.61,16.58 -1.04,16.79 -1.47,16.99 -1.94,17.05 -2.41,17.11 -2.41,17.11 -2.41,17.11 -4.95,16.11 -7.50,15.11 -8.36,14.36 -9.22,13.61 -9.48,12.42 -9.75,11.23 -9.21,10.10 -8.67,8.97 -7.79,7.55 -6.91,6.13 -5.58,3.60 -4.25,1.07 -3.85,0.11 -3.46,-0.84 -3.32,-1.11 -3.19,-1.38 -2.99,-1.60 -2.80,-1.83 -2.55,-2.00 -2.31,-2.17 -2.03,-2.28 -1.76,-2.39 -1.46,-2.43 -1.16,-2.47 -0.87,-2.44 -0.57,-2.41 -0.29,-2.31 -0.01,-2.20 0.23,-2.04 0.48,-1.87 0.68,-1.65 0.88,-1.43 1.02,-1.17 1.16,-0.90 1.24,-0.61 1.31,-0.33 1.32,-0.03 1.32,0.26 1.25,0.55 1.19,0.84 1.19,0.84 L 1.19,0.84 Z"></path></g><g stroke-opacity="0.9" fill-opacity="0.9" stroke-linecap="round" transform="translate(76.3878402123297 62.31722842125282) rotate(0 2.7286883211087343 2.7686023535887614)"><path d="M2.86 -0.3 C3.48 -0.33, 4.27 0.04, 4.73 0.53 C5.19 1.01, 5.54 1.94, 5.62 2.6 C5.7 3.27, 5.53 4.03, 5.22 4.5 C4.91 4.97, 4.39 5.29, 3.75 5.42 C3.11 5.55, 1.94 5.46, 1.36 5.26 C0.78 5.05, 0.52 4.68, 0.28 4.21 C0.03 3.74, -0.22 3.07, -0.11 2.44 C0 1.81, 0.42 0.79, 0.95 0.44 C1.48 0.09, 2.76 0.38, 3.08 0.33 C3.41 0.27, 2.86 0.08, 2.89 0.12 M2.19 0.46 C2.83 0.51, 4.22 0.74, 4.68 0.96 C5.14 1.18, 4.84 1.25, 4.96 1.79 C5.08 2.34, 5.61 3.68, 5.42 4.23 C5.23 4.79, 4.35 4.92, 3.81 5.14 C3.27 5.37, 2.8 5.8, 2.17 5.58 C1.54 5.35, 0.38 4.31, 0.02 3.8 C-0.34 3.29, -0.17 3.1, 0 2.54 C0.17 1.99, 0.66 0.89, 1.05 0.46 C1.44 0.04, 2.14 0.04, 2.34 -0.02 C2.53 -0.08, 2.16 0.05, 2.22 0.1" stroke="none" stroke-width="0" fill="#ffffff"></path><path d="M2.93 0.24 C3.49 0.26, 3.98 0.22, 4.46 0.65 C4.93 1.08, 5.64 2.14, 5.77 2.8 C5.9 3.46, 5.63 4.14, 5.23 4.62 C4.83 5.11, 3.98 5.58, 3.37 5.71 C2.76 5.85, 2.08 5.75, 1.57 5.44 C1.05 5.12, 0.52 4.42, 0.26 3.83 C0 3.25, -0.13 2.44, -0.02 1.93 C0.09 1.43, 0.41 1.1, 0.92 0.81 C1.43 0.51, 2.7 0.31, 3.06 0.17 C3.41 0.04, 3.09 0, 3.06 -0.01 M2.87 -0.39 C3.47 -0.31, 4.39 0.71, 4.88 1.28 C5.37 1.84, 5.7 2.51, 5.8 2.97 C5.89 3.44, 5.82 3.73, 5.45 4.07 C5.09 4.4, 4.21 4.85, 3.61 4.97 C3.01 5.09, 2.32 4.9, 1.83 4.79 C1.35 4.68, 0.94 4.75, 0.7 4.32 C0.46 3.89, 0.35 2.87, 0.39 2.22 C0.42 1.58, 0.46 0.81, 0.92 0.46 C1.38 0.11, 2.83 0.19, 3.12 0.14 C3.42 0.09, 2.78 0.23, 2.69 0.17" stroke="#1e1e1e" stroke-width="1" fill="none"></path></g><g stroke-opacity="0.9" fill-opacity="0.9" stroke-linecap="round" transform="translate(39.39577405123691 60.630548049987) rotate(0 2.7286883211087343 2.7686023535887614)"><path d="M2.32 -0.11 C2.88 -0.25, 3.83 -0.17, 4.35 0.22 C4.88 0.61, 5.31 1.6, 5.47 2.2 C5.64 2.81, 5.62 3.29, 5.33 3.85 C5.05 4.41, 4.34 5.22, 3.78 5.54 C3.22 5.86, 2.56 5.95, 1.96 5.77 C1.37 5.59, 0.52 5.03, 0.21 4.46 C-0.1 3.88, -0.02 2.9, 0.11 2.32 C0.24 1.74, 0.62 1.39, 1 0.99 C1.39 0.6, 2.19 0.11, 2.42 -0.03 C2.66 -0.17, 2.38 0.14, 2.42 0.14 M3.28 -0.18 C3.81 -0.11, 4.35 0.62, 4.7 1.15 C5.04 1.68, 5.4 2.46, 5.35 3 C5.3 3.54, 4.69 3.98, 4.4 4.41 C4.1 4.85, 4.04 5.49, 3.57 5.62 C3.09 5.74, 2.2 5.36, 1.56 5.14 C0.92 4.92, -0.04 4.84, -0.27 4.27 C-0.51 3.7, -0.13 2.34, 0.16 1.73 C0.44 1.12, 0.94 0.95, 1.44 0.6 C1.94 0.25, 2.81 -0.32, 3.16 -0.36 C3.5 -0.4, 3.51 0.23, 3.49 0.37" stroke="none" stroke-width="0" fill="#ffffff"></path><path d="M2.94 -0.25 C3.47 -0.31, 3.84 0.23, 4.27 0.68 C4.71 1.13, 5.45 1.9, 5.56 2.45 C5.66 3, 5.23 3.56, 4.9 4.01 C4.57 4.45, 4.1 4.87, 3.57 5.1 C3.05 5.33, 2.29 5.52, 1.75 5.39 C1.21 5.26, 0.56 4.92, 0.33 4.34 C0.11 3.76, 0.28 2.54, 0.38 1.92 C0.49 1.31, 0.53 1, 0.95 0.66 C1.38 0.32, 2.63 0.03, 2.93 -0.11 C3.24 -0.26, 2.8 -0.29, 2.8 -0.2 M3.11 -0.18 C3.74 -0.18, 4.52 0.4, 4.82 0.83 C5.12 1.27, 4.85 1.84, 4.94 2.42 C5.03 3.01, 5.49 3.94, 5.34 4.36 C5.18 4.78, 4.65 4.81, 4.02 4.94 C3.38 5.08, 2.09 5.3, 1.55 5.19 C1 5.08, 1.04 4.76, 0.76 4.27 C0.48 3.79, -0.2 2.97, -0.14 2.27 C-0.08 1.58, 0.71 0.51, 1.14 0.13 C1.56 -0.26, 2.18 -0.08, 2.41 -0.06 C2.65 -0.04, 2.55 0.12, 2.55 0.25" stroke="#1e1e1e" stroke-width="1" fill="none"></path></g><g stroke-opacity="0.9" fill-opacity="0.9" transform="translate(15.31542771304919 41.18170940111247) rotate(0 40.61368541314147 -14.60161867823507)" stroke="none"><path fill="#1e1e1e" d="M -2.22,-1.23 Q -2.22,-1.23 -1.16,-2.89 -0.11,-4.56 0.62,-5.78 1.36,-6.99 2.00,-7.97 2.65,-8.95 3.38,-10.12 4.11,-11.30 5.20,-12.81 6.29,-14.32 6.92,-15.33 7.56,-16.34 8.27,-17.53 8.98,-18.71 9.97,-20.08 10.96,-21.44 12.05,-23.02 13.14,-24.60 13.93,-25.80 14.72,-27.00 15.43,-28.36 16.14,-29.71 16.81,-30.74 17.47,-31.76 17.62,-32.05 17.77,-32.34 18.05,-32.64 18.32,-32.94 18.66,-33.17 18.99,-33.40 19.37,-33.54 19.76,-33.69 20.16,-33.73 20.56,-33.78 20.97,-33.73 21.37,-33.67 21.75,-33.53 22.13,-33.38 22.46,-33.15 22.80,-32.91 23.06,-32.61 23.33,-32.30 23.52,-31.94 23.71,-31.58 23.80,-31.18 23.89,-30.78 23.89,-30.38 23.89,-29.97 23.79,-29.58 23.69,-29.18 23.50,-28.82 23.30,-28.46 22.32,-28.04 21.33,-27.63 21.30,-26.17 21.27,-24.72 20.47,-23.14 19.67,-21.57 19.24,-20.51 18.82,-19.46 18.51,-18.40 18.20,-17.33 17.07,-18.17 15.94,-19.02 14.74,-18.83 13.53,-18.63 14.28,-19.51 15.02,-20.38 15.89,-21.26 16.77,-22.13 17.65,-22.94 18.53,-23.75 19.61,-24.68 20.69,-25.61 22.40,-26.95 24.12,-28.28 25.42,-29.43 26.71,-30.58 27.53,-31.36 28.36,-32.14 28.40,-32.21 28.45,-32.27 28.80,-32.49 29.16,-32.71 29.55,-32.83 29.95,-32.96 30.36,-32.99 30.78,-33.02 31.19,-32.95 31.60,-32.88 31.98,-32.71 32.36,-32.54 32.69,-32.29 33.02,-32.03 33.28,-31.71 33.54,-31.38 33.72,-31.00 33.89,-30.63 33.97,-30.22 34.05,-29.81 34.03,-29.39 34.00,-28.98 33.88,-28.58 33.76,-28.18 33.55,-27.82 33.34,-27.46 33.05,-27.17 32.76,-26.87 32.00,-26.09 31.24,-25.31 30.72,-24.27 30.20,-23.22 29.12,-24.39 28.04,-25.56 28.58,-26.65 29.12,-27.75 30.42,-28.61 31.73,-29.47 32.82,-30.31 33.92,-31.15 34.39,-31.50 34.87,-31.85 35.25,-32.06 35.63,-32.28 36.05,-32.40 36.47,-32.52 36.91,-32.53 37.34,-32.54 37.77,-32.45 38.20,-32.36 38.59,-32.17 38.98,-31.98 39.32,-31.70 39.65,-31.42 39.91,-31.07 40.17,-30.72 40.34,-30.32 40.51,-29.92 40.58,-29.48 40.64,-29.05 40.60,-28.62 40.56,-28.18 40.42,-27.77 40.28,-27.36 40.05,-26.99 39.81,-26.62 39.49,-26.32 39.17,-26.02 38.84,-24.86 38.51,-23.70 37.87,-24.96 37.24,-26.23 36.34,-26.80 35.44,-27.37 36.53,-27.46 37.63,-27.55 38.77,-28.15 39.91,-28.75 41.01,-29.54 42.12,-30.34 43.55,-31.45 44.99,-32.56 46.08,-33.34 47.18,-34.11 47.24,-34.16 47.29,-34.20 47.69,-34.36 48.08,-34.51 48.50,-34.57 48.92,-34.63 49.34,-34.59 49.76,-34.54 50.16,-34.40 50.56,-34.26 50.91,-34.03 51.26,-33.79 51.55,-33.48 51.84,-33.17 52.04,-32.80 52.25,-32.42 52.35,-32.02 52.46,-31.61 52.47,-31.18 52.48,-30.76 52.39,-30.35 52.29,-29.93 52.10,-29.55 51.91,-29.18 51.64,-28.85 51.36,-28.53 51.02,-28.28 50.67,-28.04 50.05,-26.94 49.42,-25.84 48.71,-24.84 47.99,-23.84 47.29,-25.32 46.59,-26.79 47.51,-27.94 48.44,-29.08 49.45,-29.54 50.47,-30.01 51.51,-30.49 52.56,-30.98 54.58,-31.05 56.60,-31.13 57.60,-29.94 58.61,-28.75 58.69,-27.61 58.78,-26.46 57.93,-24.80 57.07,-23.13 56.56,-21.87 56.05,-20.60 54.78,-21.50 53.51,-22.39 54.93,-23.79 56.35,-25.19 57.41,-25.82 58.47,-26.44 59.51,-26.79 60.54,-27.13 62.51,-24.82 64.49,-22.52 64.42,-21.38 64.36,-20.25 63.26,-21.10 62.17,-21.95 60.57,-22.16 58.97,-22.38 60.33,-23.77 61.69,-25.16 64.11,-26.92 66.53,-28.67 67.46,-29.41 68.39,-30.16 68.68,-30.37 68.97,-30.57 69.28,-30.77 69.59,-30.96 69.93,-31.08 70.28,-31.19 70.64,-31.22 71.01,-31.25 71.37,-31.19 71.73,-31.13 72.06,-30.99 72.40,-30.84 72.69,-30.62 72.98,-30.40 73.21,-30.12 73.44,-29.84 73.60,-29.51 73.75,-29.17 73.83,-28.82 73.90,-28.46 73.88,-28.09 73.87,-27.73 73.77,-27.38 73.66,-27.03 73.48,-26.71 73.30,-26.40 73.04,-26.13 72.79,-25.87 73.31,-26.86 73.84,-27.85 73.32,-26.51 72.80,-25.16 72.15,-23.97 71.51,-22.79 70.99,-21.78 70.46,-20.77 70.28,-19.69 70.09,-18.62 69.58,-17.35 69.07,-16.08 68.80,-15.58 68.54,-15.08 68.26,-14.75 67.98,-14.43 67.64,-14.18 67.29,-13.93 66.89,-13.77 66.50,-13.61 66.07,-13.55 65.65,-13.48 65.23,-13.53 64.80,-13.57 64.40,-13.71 63.99,-13.86 63.64,-14.09 63.28,-14.33 62.99,-14.64 62.70,-14.95 62.49,-15.33 62.29,-15.70 62.18,-16.12 62.07,-16.53 62.06,-16.96 62.05,-17.38 62.14,-17.80 62.24,-18.22 62.43,-18.60 62.62,-18.98 64.16,-19.64 65.70,-20.30 65.84,-21.36 65.99,-22.43 67.03,-23.20 68.08,-23.97 70.22,-23.05 72.36,-22.13 72.78,-20.77 73.21,-19.42 72.99,-18.18 72.77,-16.94 72.74,-15.87 72.71,-14.81 73.81,-14.61 74.91,-14.40 75.80,-13.79 76.68,-13.18 77.58,-12.31 78.48,-11.44 78.75,-10.37 79.02,-9.30 77.71,-10.33 76.40,-11.36 77.63,-11.06 78.87,-10.76 79.65,-9.77 80.42,-8.79 81.01,-7.69 81.59,-6.60 82.29,-5.66 82.98,-4.72 83.29,-3.59 83.60,-2.47 83.20,-3.54 82.79,-4.62 83.33,-3.61 83.87,-2.60 84.28,-1.13 84.70,0.33 84.87,0.93 85.04,1.52 85.02,2.15 84.99,2.77 84.76,3.35 84.54,3.93 84.14,4.41 83.74,4.89 83.21,5.21 82.68,5.54 82.07,5.68 81.46,5.81 80.84,5.75 80.22,5.69 79.66,5.43 79.09,5.18 78.63,4.75 78.18,4.33 77.88,3.78 77.59,3.23 77.48,2.62 77.37,2.01 77.47,1.39 77.56,0.78 77.85,0.22 78.14,-0.32 78.59,-0.75 79.04,-1.18 79.60,-1.45 80.16,-1.72 80.78,-1.79 81.40,-1.86 82.01,-1.73 82.62,-1.60 83.15,-1.29 83.69,-0.97 84.10,-0.50 84.50,-0.03 84.74,0.54 84.97,1.11 85.01,1.74 85.05,2.36 84.89,2.96 84.73,3.56 84.38,4.08 84.04,4.60 83.55,4.98 83.05,5.36 82.46,5.56 81.88,5.77 81.25,5.77 80.63,5.78 80.04,5.58 79.45,5.39 78.95,5.02 78.45,4.64 78.10,4.13 77.74,3.62 77.74,3.62 77.74,3.62 76.99,1.25 76.24,-1.10 75.56,-2.15 74.88,-3.19 74.36,-4.22 73.84,-5.26 72.70,-7.59 71.57,-9.92 71.85,-8.55 72.12,-7.17 71.19,-7.84 70.26,-8.51 69.35,-9.26 68.44,-10.00 67.40,-10.96 66.36,-11.92 65.85,-13.37 65.34,-14.83 65.39,-15.89 65.45,-16.95 66.17,-18.00 66.88,-19.04 69.22,-18.38 71.55,-17.72 70.81,-16.94 70.06,-16.16 69.04,-15.27 68.02,-14.37 66.76,-14.06 65.50,-13.75 67.02,-14.41 68.54,-15.08 68.26,-14.75 67.98,-14.43 67.64,-14.18 67.29,-13.93 66.89,-13.77 66.50,-13.61 66.07,-13.55 65.65,-13.48 65.23,-13.53 64.80,-13.57 64.40,-13.71 64.00,-13.86 63.64,-14.09 63.28,-14.33 62.99,-14.64 62.70,-14.95 62.49,-15.33 62.29,-15.70 62.18,-16.12 62.07,-16.53 62.06,-16.96 62.05,-17.38 62.14,-17.80 62.24,-18.22 62.43,-18.60 62.62,-18.98 63.03,-19.62 63.45,-20.26 63.72,-21.30 63.99,-22.34 64.46,-23.45 64.92,-24.55 65.62,-25.58 66.32,-26.61 67.12,-27.42 67.92,-28.22 68.44,-29.40 68.97,-30.57 69.28,-30.77 69.59,-30.96 69.93,-31.08 70.28,-31.19 70.64,-31.22 71.01,-31.25 71.37,-31.19 71.73,-31.13 72.06,-30.99 72.40,-30.84 72.69,-30.62 72.98,-30.40 73.21,-30.12 73.44,-29.84 73.60,-29.51 73.75,-29.18 73.83,-28.82 73.90,-28.46 73.88,-28.09 73.87,-27.73 73.77,-27.38 73.66,-27.03 73.48,-26.71 73.30,-26.40 73.04,-26.13 72.79,-25.87 72.47,-25.70 72.15,-25.52 71.29,-24.81 70.42,-24.09 68.54,-22.18 66.65,-20.26 65.84,-19.32 65.03,-18.38 64.17,-17.39 63.32,-16.41 61.31,-16.43 59.30,-16.46 58.16,-18.24 57.02,-20.01 57.10,-21.10 57.18,-22.19 57.75,-23.41 58.31,-24.64 59.81,-22.25 61.30,-19.87 60.06,-19.04 58.82,-18.21 57.91,-17.57 57.01,-16.92 56.03,-16.39 55.06,-15.85 53.76,-15.62 52.46,-15.39 51.11,-16.22 49.76,-17.05 49.20,-18.49 48.63,-19.93 48.92,-21.11 49.20,-22.30 49.69,-23.52 50.18,-24.74 51.26,-25.95 52.34,-27.17 53.95,-25.83 55.57,-24.50 54.51,-24.01 53.45,-23.52 52.41,-23.05 51.38,-22.58 49.86,-21.91 48.34,-21.25 46.51,-20.78 44.67,-20.31 43.48,-20.76 42.28,-21.21 41.66,-22.27 41.05,-23.33 41.06,-24.66 41.08,-25.99 41.63,-27.06 42.19,-28.13 42.88,-29.02 43.57,-29.91 44.36,-31.03 45.16,-32.15 46.23,-33.17 47.29,-34.20 47.69,-34.36 48.08,-34.51 48.50,-34.57 48.92,-34.63 49.34,-34.59 49.76,-34.54 50.16,-34.40 50.56,-34.26 50.91,-34.03 51.26,-33.79 51.55,-33.48 51.84,-33.17 52.04,-32.80 52.25,-32.43 52.35,-32.02 52.46,-31.61 52.47,-31.18 52.48,-30.76 52.39,-30.35 52.29,-29.93 52.10,-29.56 51.91,-29.18 51.64,-28.85 51.36,-28.53 51.02,-28.28 50.67,-28.04 50.38,-27.87 50.08,-27.71 49.12,-26.96 48.16,-26.22 47.36,-25.52 46.55,-24.82 45.01,-23.67 43.48,-22.51 42.55,-21.96 41.63,-21.41 39.44,-20.69 37.26,-19.98 35.83,-20.02 34.40,-20.06 33.50,-20.63 32.60,-21.20 31.95,-22.33 31.30,-23.46 31.38,-24.56 31.46,-25.66 31.84,-26.77 32.21,-27.89 32.88,-28.94 33.55,-29.99 34.21,-30.92 34.87,-31.85 35.25,-32.06 35.63,-32.28 36.05,-32.40 36.47,-32.52 36.91,-32.53 37.34,-32.54 37.77,-32.45 38.20,-32.36 38.59,-32.17 38.98,-31.98 39.32,-31.70 39.65,-31.42 39.91,-31.07 40.17,-30.72 40.34,-30.32 40.51,-29.92 40.58,-29.49 40.64,-29.05 40.60,-28.62 40.56,-28.18 40.42,-27.77 40.28,-27.36 40.05,-26.99 39.81,-26.62 39.49,-26.32 39.17,-26.03 38.89,-25.85 38.61,-25.67 37.73,-25.01 36.85,-24.35 35.69,-23.52 34.53,-22.69 33.23,-21.77 31.93,-20.85 30.48,-19.96 29.03,-19.06 27.95,-18.86 26.88,-18.65 25.75,-18.90 24.62,-19.14 23.92,-19.94 23.22,-20.74 22.97,-22.43 22.73,-24.12 23.28,-25.32 23.83,-26.53 24.46,-27.63 25.08,-28.73 25.83,-29.71 26.58,-30.69 27.51,-31.48 28.45,-32.27 28.80,-32.49 29.16,-32.71 29.55,-32.83 29.95,-32.96 30.36,-32.99 30.78,-33.02 31.19,-32.95 31.60,-32.88 31.98,-32.71 32.36,-32.54 32.69,-32.29 33.02,-32.03 33.28,-31.71 33.54,-31.38 33.72,-31.00 33.89,-30.63 33.97,-30.22 34.05,-29.81 34.03,-29.39 34.00,-28.98 33.88,-28.58 33.76,-28.18 33.55,-27.82 33.34,-27.46 33.05,-27.17 32.76,-26.87 32.45,-26.61 32.14,-26.35 31.18,-25.45 30.22,-24.55 29.42,-23.80 28.63,-23.04 26.91,-21.47 25.19,-19.90 24.31,-19.15 23.43,-18.41 22.27,-17.32 21.11,-16.22 20.12,-15.13 19.12,-14.04 17.91,-13.10 16.70,-12.17 15.49,-12.08 14.28,-12.00 13.05,-12.86 11.83,-13.73 11.39,-15.31 10.96,-16.89 11.22,-18.15 11.48,-19.41 11.83,-20.42 12.17,-21.43 12.62,-22.47 13.07,-23.50 13.62,-24.67 14.18,-25.83 14.63,-26.81 15.07,-27.79 15.64,-28.93 16.21,-30.06 16.99,-31.20 17.77,-32.34 18.05,-32.64 18.32,-32.94 18.66,-33.17 18.99,-33.40 19.37,-33.54 19.75,-33.69 20.16,-33.73 20.56,-33.78 20.97,-33.73 21.37,-33.67 21.75,-33.53 22.13,-33.38 22.46,-33.15 22.80,-32.91 23.06,-32.61 23.33,-32.30 23.52,-31.94 23.70,-31.58 23.80,-31.18 23.89,-30.78 23.89,-30.38 23.89,-29.97 23.79,-29.58 23.69,-29.18 23.50,-28.82 23.30,-28.46 22.90,-27.89 22.49,-27.31 21.80,-26.17 21.11,-25.04 20.19,-23.75 19.27,-22.47 18.23,-20.94 17.19,-19.42 16.57,-18.54 15.96,-17.66 14.75,-16.00 13.54,-14.35 12.62,-13.24 11.71,-12.13 10.67,-10.84 9.64,-9.54 8.51,-8.23 7.38,-6.91 6.37,-5.69 5.36,-4.47 4.64,-3.39 3.93,-2.31 3.07,-0.53 2.22,1.23 2.04,1.48 1.86,1.73 1.62,1.92 1.39,2.12 1.11,2.26 0.84,2.39 0.54,2.46 0.24,2.53 -0.06,2.52 -0.36,2.51 -0.66,2.43 -0.95,2.35 -1.22,2.20 -1.49,2.05 -1.71,1.84 -1.94,1.63 -2.11,1.38 -2.27,1.12 -2.38,0.83 -2.48,0.54 -2.51,0.24 -2.54,-0.06 -2.49,-0.36 -2.45,-0.66 -2.33,-0.95 -2.22,-1.23 -2.22,-1.23 L -2.22,-1.23 Z"></path></g><g stroke-opacity="0.9" fill-opacity="0.9" transform="translate(46.85823652801764 17.317557469280132) rotate(0 9.902566177322 7.31967042071696)" stroke="none"><path fill="#1e1e1e" d="M 1.61,1.96 Q 1.61,1.96 0.88,2.61 0.15,3.26 -0.87,4.01 -1.91,4.76 -3.15,6.13 -4.39,7.49 -5.19,8.33 -6.00,9.16 -7.11,10.39 -8.21,11.61 -9.02,12.64 -9.82,13.67 -10.86,14.54 -11.89,15.42 -12.88,16.10 -13.87,16.78 -14.83,17.28 -15.78,17.78 -16.92,17.92 -18.05,18.06 -19.15,18.02 -20.26,17.98 -21.33,17.88 -22.40,17.79 -23.41,17.41 -24.41,17.04 -25.32,15.79 -26.22,14.54 -25.92,12.96 -25.62,11.38 -24.77,10.50 -23.91,9.61 -22.98,8.99 -22.04,8.37 -20.72,7.79 -19.39,7.20 -18.08,6.78 -16.77,6.36 -15.74,6.09 -14.71,5.83 -13.24,5.54 -11.77,5.25 -9.93,4.82 -8.08,4.39 -6.98,4.14 -5.87,3.88 -3.98,3.28 -2.10,2.68 -1.05,2.31 0.00,1.94 1.62,1.41 3.24,0.87 4.30,0.43 5.36,-0.00 6.54,-0.55 7.72,-1.09 8.50,-1.83 9.28,-2.57 9.54,-2.79 9.79,-3.01 10.13,-3.20 10.46,-3.39 10.84,-3.50 11.21,-3.61 11.60,-3.62 11.99,-3.64 12.37,-3.56 12.76,-3.48 13.11,-3.31 13.46,-3.14 13.76,-2.90 14.06,-2.65 14.30,-2.34 14.53,-2.03 14.68,-1.67 14.83,-1.31 14.89,-0.92 14.96,-0.54 14.92,-0.15 14.89,0.23 14.77,0.60 14.64,0.97 14.43,1.30 14.22,1.63 13.94,1.89 13.66,2.16 12.18,2.38 10.71,2.59 9.88,3.57 9.06,4.54 8.36,5.38 7.66,6.21 6.88,4.35 6.09,2.48 6.87,1.50 7.65,0.52 9.21,-0.02 10.77,-0.56 11.93,-0.91 13.09,-1.26 14.78,-1.32 16.46,-1.38 17.45,-0.72 18.44,-0.05 18.76,1.66 19.09,3.38 18.57,4.50 18.06,5.61 17.64,6.70 17.22,7.78 16.73,6.09 16.23,4.41 14.98,3.66 13.72,2.91 15.17,2.45 16.62,1.99 17.69,1.74 18.76,1.49 21.23,2.87 23.70,4.26 23.59,5.91 23.47,7.57 22.54,5.78 21.61,4.00 22.20,2.91 22.79,1.82 24.04,1.48 25.30,1.14 27.06,1.23 28.82,1.33 29.96,2.22 31.09,3.10 31.64,4.03 32.19,4.95 31.23,4.31 30.28,3.66 31.43,3.57 32.58,3.47 33.81,3.80 35.04,4.14 35.96,5.16 36.89,6.17 37.03,7.30 37.16,8.43 36.04,7.21 34.92,6.00 36.41,6.13 37.90,6.25 39.03,7.33 40.16,8.42 40.39,9.45 40.61,10.49 39.69,9.60 38.77,8.71 40.29,8.68 41.80,8.66 44.15,11.91 46.49,15.16 46.39,15.79 46.29,16.41 46.00,16.96 45.70,17.52 45.24,17.95 44.79,18.38 44.22,18.65 43.65,18.91 43.02,18.98 42.39,19.05 41.78,18.91 41.17,18.78 40.63,18.45 40.09,18.13 39.68,17.65 39.27,17.17 39.04,16.59 38.81,16.00 38.77,15.37 38.74,14.74 38.91,14.14 39.08,13.53 39.43,13.01 39.78,12.49 40.28,12.11 40.78,11.73 41.38,11.53 41.98,11.33 42.61,11.33 43.23,11.33 43.83,11.53 44.43,11.73 44.93,12.11 45.43,12.49 45.78,13.01 46.14,13.53 46.30,14.14 46.47,14.75 46.44,15.37 46.40,16.00 46.17,16.59 45.94,17.17 45.53,17.65 45.12,18.13 44.58,18.45 44.04,18.78 43.43,18.91 42.81,19.05 42.19,18.98 41.56,18.91 40.99,18.65 40.42,18.38 39.96,17.95 39.51,17.52 39.21,16.96 38.92,16.41 38.82,15.78 38.72,15.16 38.72,15.16 38.72,15.16 39.45,15.68 40.17,16.19 39.01,16.18 37.85,16.17 36.76,15.98 35.67,15.79 34.70,15.03 33.74,14.26 33.35,12.63 32.95,11.00 33.36,12.17 33.76,13.34 32.48,13.01 31.20,12.69 30.59,11.80 29.98,10.91 29.56,9.72 29.14,8.53 29.49,7.39 29.85,6.25 29.96,7.44 30.07,8.64 31.26,9.91 32.45,11.18 31.29,11.20 30.13,11.23 28.98,11.01 27.83,10.80 26.68,9.77 25.53,8.75 24.52,9.15 23.52,9.56 22.28,10.01 21.05,10.47 19.69,9.99 18.34,9.52 17.42,7.42 16.50,5.32 16.97,4.32 17.45,3.32 17.52,4.55 17.59,5.78 18.59,7.27 19.59,8.76 18.52,9.06 17.45,9.35 16.03,9.76 14.61,10.16 13.04,9.42 11.46,8.68 11.14,6.44 10.83,4.20 11.53,3.35 12.23,2.50 13.16,4.06 14.08,5.63 12.87,6.02 11.65,6.42 10.00,7.06 8.34,7.70 7.13,8.09 5.93,8.48 4.39,8.04 2.86,7.60 2.27,5.13 1.67,2.65 2.51,1.63 3.34,0.60 4.16,-0.14 4.97,-0.89 6.17,-1.65 7.36,-2.41 8.39,-2.86 9.43,-3.31 10.93,-3.42 12.43,-3.54 11.11,-3.27 9.79,-3.01 10.13,-3.20 10.46,-3.39 10.84,-3.50 11.21,-3.61 11.60,-3.62 11.99,-3.64 12.37,-3.56 12.76,-3.48 13.11,-3.31 13.46,-3.14 13.76,-2.90 14.06,-2.65 14.29,-2.34 14.53,-2.03 14.68,-1.67 14.83,-1.31 14.89,-0.92 14.96,-0.54 14.92,-0.15 14.89,0.23 14.77,0.60 14.64,0.97 14.43,1.30 14.22,1.63 13.94,1.89 13.66,2.16 12.80,2.81 11.94,3.45 10.97,3.96 9.99,4.47 8.80,4.92 7.61,5.37 6.54,5.82 5.47,6.27 3.84,7.08 2.21,7.89 1.12,8.31 0.02,8.74 -1.01,9.13 -2.05,9.51 -3.13,9.87 -4.21,10.23 -5.36,10.57 -6.52,10.91 -8.31,11.37 -10.10,11.84 -11.38,12.25 -12.66,12.66 -13.72,13.02 -14.78,13.38 -16.10,13.79 -17.42,14.20 -18.47,14.65 -19.52,15.10 -19.42,14.03 -19.31,12.95 -19.71,11.96 -20.10,10.97 -19.01,11.19 -17.91,11.41 -16.96,10.86 -16.02,10.30 -15.07,9.75 -14.13,9.20 -13.32,8.34 -12.50,7.49 -11.34,6.32 -10.18,5.16 -9.36,4.30 -8.54,3.44 -6.96,1.93 -5.37,0.42 -4.27,-0.18 -3.17,-0.79 -2.39,-1.38 -1.61,-1.96 -1.35,-2.13 -1.09,-2.29 -0.80,-2.39 -0.51,-2.49 -0.20,-2.52 0.09,-2.54 0.39,-2.49 0.70,-2.44 0.98,-2.32 1.26,-2.20 1.51,-2.02 1.76,-1.84 1.95,-1.60 2.15,-1.36 2.28,-1.08 2.41,-0.81 2.47,-0.51 2.53,-0.21 2.52,0.09 2.51,0.40 2.43,0.69 2.34,0.99 2.19,1.25 2.03,1.52 1.82,1.74 1.61,1.96 1.61,1.96 L 1.61,1.96 Z"></path></g><g stroke-opacity="0.9" fill-opacity="0.9" transform="translate(14.876476005497352 44.30986622944823) rotate(0 37.4363805370445 -10.726649131298245)" stroke="none"><path fill="#1e1e1e" d="M -2.37,0 Q -2.37,0 -2.42,-0.46 -2.47,-0.92 -1.72,-0.08 -0.97,0.75 -0.82,1.87 -0.68,2.99 -0.69,4.36 -0.70,5.73 -0.71,6.53 -0.72,7.33 -0.78,7.73 -0.83,8.13 -0.98,8.50 -1.14,8.88 -1.37,9.20 -1.61,9.53 -1.91,9.79 -2.22,10.05 -2.58,10.23 -2.94,10.41 -3.33,10.49 -3.73,10.58 -4.13,10.57 -4.53,10.56 -4.92,10.46 -5.31,10.35 -5.66,10.16 -6.01,9.97 -6.31,9.69 -6.60,9.42 -6.82,9.08 -7.05,8.75 -7.18,8.37 -7.31,7.99 -7.35,7.59 -7.39,7.19 -7.20,5.55 -7.01,3.91 -6.69,2.60 -6.38,1.29 -5.88,-0.37 -5.37,-2.04 -4.71,-3.70 -4.05,-5.37 -3.42,-6.79 -2.80,-8.21 -2.33,-9.31 -1.86,-10.40 -0.79,-9.43 0.27,-8.45 0.97,-7.34 1.68,-6.22 1.65,-4.98 1.63,-3.74 1.52,-2.60 1.42,-1.45 1.43,-1.43 1.43,-1.41 1.34,-0.98 1.24,-0.55 1.04,-0.15 0.84,0.23 0.55,0.57 0.26,0.91 -0.09,1.17 -0.45,1.42 -0.86,1.59 -1.27,1.75 -1.71,1.81 -2.15,1.87 -2.59,1.83 -3.03,1.78 -3.45,1.63 -3.86,1.48 -4.23,1.24 -4.60,0.99 -4.90,0.66 -5.20,0.34 -5.41,-0.04 -5.63,-0.43 -5.74,-0.86 -5.85,-1.29 -5.86,-1.73 -5.87,-2.17 -5.42,-3.56 -4.97,-4.94 -4.40,-6.50 -3.83,-8.07 -3.31,-9.34 -2.78,-10.61 -2.12,-11.97 -1.46,-13.34 -0.76,-14.57 -0.06,-15.79 1.15,-17.38 2.36,-18.98 3.12,-19.96 3.88,-20.94 4.35,-21.40 4.81,-21.85 5.15,-22.11 5.49,-22.37 5.88,-22.54 6.26,-22.71 6.68,-22.79 7.10,-22.86 7.53,-22.83 7.95,-22.80 8.35,-22.67 8.76,-22.54 9.12,-22.32 9.48,-22.10 9.78,-21.80 10.08,-21.49 10.30,-21.13 10.51,-20.76 10.64,-20.36 10.76,-19.95 10.78,-19.53 10.80,-19.10 10.73,-18.68 10.65,-18.27 10.47,-17.88 10.29,-17.50 10.03,-17.16 9.76,-16.83 10.17,-18.53 10.57,-20.23 10.63,-18.99 10.68,-17.76 10.00,-16.29 9.33,-14.82 8.91,-13.69 8.49,-12.57 8.39,-11.98 8.30,-11.39 8.16,-10.98 8.02,-10.57 7.79,-10.21 7.56,-9.84 7.24,-9.54 6.93,-9.25 6.56,-9.03 6.18,-8.82 5.76,-8.70 5.35,-8.58 4.91,-8.56 4.48,-8.55 4.06,-8.64 3.63,-8.72 3.24,-8.91 2.85,-9.10 2.52,-9.37 2.19,-9.65 1.93,-10.00 1.67,-10.34 1.50,-10.74 1.33,-11.14 1.26,-11.57 1.20,-12.00 1.23,-12.43 1.27,-12.86 1.66,-13.86 2.05,-14.86 3.55,-16.93 5.04,-19.01 6.38,-20.35 7.73,-21.68 9.26,-22.99 10.80,-24.29 12.24,-25.43 13.67,-26.57 14.80,-27.47 15.93,-28.37 17.31,-29.37 18.68,-30.37 20.79,-29.92 22.90,-29.48 23.35,-28.46 23.81,-27.44 24.17,-26.15 24.53,-24.85 25.34,-24.08 26.15,-23.31 27.52,-24.09 28.89,-24.87 30.25,-25.54 31.60,-26.21 33.08,-26.91 34.55,-27.61 35.97,-28.27 37.39,-28.92 38.51,-29.44 39.62,-29.96 41.05,-30.58 42.47,-31.20 43.72,-31.51 44.97,-31.82 46.56,-31.47 48.15,-31.12 49.03,-30.44 49.91,-29.77 50.91,-29.13 51.91,-28.49 52.91,-28.11 53.92,-27.74 55.55,-27.56 57.19,-27.38 58.77,-27.23 60.34,-27.08 61.51,-26.81 62.67,-26.54 64.00,-26.19 65.33,-25.84 66.53,-25.61 67.73,-25.38 69.36,-25.11 71.00,-24.85 72.59,-24.31 74.19,-23.78 74.81,-22.76 75.43,-21.75 75.50,-20.61 75.58,-19.47 76.18,-18.33 76.77,-17.20 77.91,-16.47 79.05,-15.74 79.81,-14.59 80.58,-13.43 81.59,-11.03 82.60,-8.62 82.63,-8.01 82.66,-7.41 82.50,-6.82 82.34,-6.24 82.00,-5.73 81.66,-5.23 81.18,-4.86 80.70,-4.49 80.12,-4.30 79.55,-4.10 78.94,-4.10 78.33,-4.10 77.76,-4.29 77.18,-4.48 76.69,-4.85 76.21,-5.22 75.87,-5.72 75.53,-6.22 75.36,-6.81 75.20,-7.39 75.23,-8.00 75.26,-8.61 75.49,-9.17 75.71,-9.73 76.10,-10.20 76.49,-10.66 77.01,-10.98 77.53,-11.29 78.13,-11.42 78.72,-11.55 79.32,-11.49 79.93,-11.43 80.48,-11.17 81.03,-10.92 81.47,-10.50 81.92,-10.08 82.20,-9.55 82.49,-9.01 82.59,-8.41 82.69,-7.81 82.59,-7.21 82.49,-6.61 82.21,-6.08 81.92,-5.54 81.48,-5.12 81.04,-4.70 80.49,-4.45 79.94,-4.19 79.34,-4.12 78.73,-4.06 78.14,-4.19 77.55,-4.31 77.03,-4.63 76.51,-4.94 76.11,-5.40 75.72,-5.86 75.49,-6.43 75.27,-6.99 75.27,-6.99 75.27,-6.99 74.66,-8.57 74.05,-10.15 72.89,-10.96 71.74,-11.77 70.98,-12.55 70.23,-13.34 69.54,-14.52 68.85,-15.71 68.58,-16.84 68.31,-17.98 68.39,-19.05 68.47,-20.12 69.15,-18.99 69.83,-17.86 68.11,-18.15 66.38,-18.43 64.96,-18.75 63.55,-19.06 62.13,-19.48 60.70,-19.89 59.65,-20.15 58.60,-20.41 57.47,-20.54 56.34,-20.67 54.72,-20.86 53.10,-21.05 51.94,-21.38 50.79,-21.72 49.64,-22.29 48.49,-22.86 47.52,-23.54 46.55,-24.22 45.49,-24.97 44.44,-25.71 43.20,-25.29 41.97,-24.88 40.93,-24.40 39.89,-23.93 38.59,-23.22 37.29,-22.52 35.94,-21.70 34.58,-20.87 33.29,-20.07 32.00,-19.26 30.79,-18.56 29.58,-17.85 28.36,-17.44 27.13,-17.03 25.59,-17.24 24.04,-17.46 23.04,-17.97 22.05,-18.48 20.97,-19.64 19.89,-20.81 19.05,-22.61 18.21,-24.41 18.42,-25.69 18.63,-26.96 20.04,-26.26 21.44,-25.55 20.35,-24.91 19.25,-24.27 18.21,-23.43 17.18,-22.58 15.98,-21.40 14.78,-20.23 13.62,-18.88 12.45,-17.52 11.52,-16.27 10.59,-15.02 9.44,-13.21 8.30,-11.39 8.16,-10.98 8.02,-10.57 7.79,-10.21 7.56,-9.84 7.25,-9.54 6.93,-9.25 6.56,-9.03 6.18,-8.82 5.76,-8.70 5.35,-8.58 4.91,-8.56 4.48,-8.55 4.06,-8.64 3.63,-8.72 3.24,-8.91 2.85,-9.10 2.52,-9.37 2.19,-9.65 1.93,-10.00 1.67,-10.34 1.50,-10.74 1.33,-11.14 1.26,-11.57 1.20,-12.00 1.23,-12.43 1.27,-12.86 1.47,-13.73 1.67,-14.60 2.07,-15.70 2.46,-16.79 3.32,-17.45 4.19,-18.12 4.50,-19.98 4.81,-21.85 5.15,-22.11 5.49,-22.37 5.88,-22.54 6.26,-22.71 6.68,-22.79 7.10,-22.86 7.52,-22.83 7.95,-22.80 8.35,-22.67 8.76,-22.54 9.12,-22.32 9.48,-22.10 9.78,-21.80 10.08,-21.49 10.30,-21.13 10.51,-20.76 10.64,-20.36 10.76,-19.95 10.78,-19.53 10.81,-19.10 10.73,-18.69 10.65,-18.27 10.47,-17.88 10.29,-17.50 10.03,-17.16 9.76,-16.83 9.56,-16.71 9.36,-16.59 8.62,-15.63 7.87,-14.67 6.96,-13.40 6.05,-12.13 5.27,-10.71 4.49,-9.29 3.90,-8.07 3.31,-6.84 2.85,-5.56 2.39,-4.27 1.91,-2.84 1.43,-1.41 1.34,-0.98 1.24,-0.55 1.04,-0.15 0.84,0.23 0.55,0.57 0.26,0.91 -0.09,1.16 -0.45,1.42 -0.86,1.59 -1.27,1.75 -1.71,1.81 -2.15,1.87 -2.59,1.83 -3.03,1.78 -3.45,1.63 -3.86,1.48 -4.23,1.24 -4.60,0.99 -4.90,0.66 -5.20,0.34 -5.41,-0.04 -5.63,-0.43 -5.74,-0.86 -5.85,-1.29 -5.86,-1.73 -5.87,-2.17 -5.74,-3.19 -5.62,-4.21 -5.58,-5.28 -5.54,-6.35 -5.42,-7.79 -5.29,-9.22 -4.85,-10.44 -4.41,-11.66 -3.32,-12.96 -2.24,-14.25 -0.54,-14.79 1.15,-15.33 2.50,-14.52 3.86,-13.72 4.48,-12.64 5.10,-11.57 5.00,-10.38 4.89,-9.19 4.43,-8.00 3.98,-6.81 3.38,-5.53 2.79,-4.24 2.20,-2.79 1.61,-1.34 1.12,0.04 0.64,1.43 0.27,2.89 -0.09,4.36 -0.40,5.84 -0.72,7.33 -0.78,7.73 -0.83,8.13 -0.98,8.50 -1.14,8.88 -1.37,9.20 -1.61,9.53 -1.91,9.79 -2.22,10.05 -2.58,10.23 -2.94,10.41 -3.33,10.49 -3.73,10.58 -4.13,10.57 -4.53,10.56 -4.92,10.46 -5.31,10.35 -5.66,10.16 -6.01,9.97 -6.31,9.69 -6.60,9.42 -6.82,9.08 -7.05,8.75 -7.18,8.37 -7.31,7.99 -7.35,7.59 -7.39,7.19 -7.38,7.02 -7.37,6.84 -7.23,5.58 -7.09,4.31 -6.94,3.21 -6.79,2.12 -6.46,0.97 -6.13,-0.17 -5.61,-1.15 -5.09,-2.13 -4.10,-3.05 -3.12,-3.98 -1.78,-4.21 -0.44,-4.44 0.59,-3.96 1.62,-3.48 2.05,-2.20 2.47,-0.92 2.42,-0.46 2.37,0 2.34,0.28 2.30,0.56 2.20,0.83 2.10,1.10 1.94,1.34 1.78,1.57 1.56,1.76 1.35,1.95 1.09,2.09 0.84,2.22 0.56,2.29 0.28,2.36 -0.00,2.36 -0.28,2.36 -0.56,2.29 -0.84,2.22 -1.09,2.09 -1.35,1.95 -1.56,1.76 -1.78,1.57 -1.94,1.34 -2.10,1.10 -2.20,0.83 -2.30,0.56 -2.34,0.28 -2.37,-0.00 -2.37,-0.00 L -2.37,0 Z"></path></g><g stroke-linecap="round"><g transform="translate(64.85297231819663 88.87320531127875) rotate(0 -8.856701526665688 0.17453064928054118)"><path d="M0 0 C-2.95 0.06, -14.76 0.29, -17.71 0.35 M0 0 C-2.95 0.06, -14.76 0.29, -17.71 0.35" stroke="#1e1e1e" stroke-width="1" fill="none"></path></g></g><mask></mask><g stroke-linecap="round"><g transform="translate(64.78970332357733 88.71117672893467) rotate(0 2.05301535384973 -1.5717197070705708)"><path d="M0 0 C0.68 -0.52, 3.42 -2.62, 4.11 -3.14 M0 0 C0.68 -0.52, 3.42 -2.62, 4.11 -3.14" stroke="#1e1e1e" stroke-width="1" fill="none"></path></g></g><mask></mask><g stroke-linecap="round"><g transform="translate(47.27740463797841 89.13446022719114) rotate(0 -2.0208211962799965 -1.4094312483317424)"><path d="M0 0 C-0.67 -0.47, -3.37 -2.35, -4.04 -2.82 M0 0 C-0.67 -0.47, -3.37 -2.35, -4.04 -2.82" stroke="#1e1e1e" stroke-width="1" fill="none"></path></g></g><mask></mask></svg>