<svg version="1.1" xmlns="http://www.w3.org/2000/svg" viewBox="0 0 263.38909912109375 245.32904052734375" width="263.38909912109375" height="245.32904052734375">
  <!-- svg-source:excalidraw -->
  
  <defs>
    <style class="style-fonts">
      @font-face {
        font-family: "Virgil";
        src: url("https://excalidraw.com/Virgil.woff2");
      }
      @font-face {
        font-family: "Cascadia";
        src: url("https://excalidraw.com/Cascadia.woff2");
      }
      @font-face {
        font-family: "Assistant";
        src: url("https://excalidraw.com/Assistant-Regular.woff2");
      }
    </style>
    
  </defs>
  <g stroke-linecap="round" transform="translate(10 10) rotate(0 121.69454956054688 112.66452026367188)"><path d="M77.57 6.74 C89.3 0.68, 105.95 -0.24, 119.98 -0.41 C134.02 -0.58, 148.77 1.48, 161.77 5.73 C174.77 9.98, 187.35 16.99, 197.98 25.1 C208.61 33.21, 218.23 43.45, 225.57 54.38 C232.9 65.3, 239.13 78, 241.99 90.64 C244.86 103.28, 245.14 117.22, 242.75 130.21 C240.36 143.2, 234.46 157.39, 227.66 168.59 C220.87 179.79, 212.54 189.12, 201.97 197.43 C191.41 205.75, 177.4 213.99, 164.26 218.5 C151.12 223.01, 137.04 224.45, 123.12 224.49 C109.21 224.54, 93.7 222.88, 80.76 218.77 C67.81 214.65, 56.07 207.84, 45.44 199.83 C34.82 191.81, 24.36 181.82, 17.03 170.65 C9.71 159.48, 4.23 145.35, 1.49 132.82 C-1.24 120.3, -1.61 108.09, 0.63 95.5 C2.87 82.91, 8.09 68.69, 14.93 57.28 C21.77 45.88, 30.28 35.57, 41.66 27.07 C53.05 18.56, 75.23 9.7, 83.23 6.25 C91.24 2.79, 88.92 4.59, 89.71 6.33 M149.57 1.71 C162.48 2.64, 175.71 9.93, 187.49 17.44 C199.27 24.95, 211.93 36.03, 220.23 46.76 C228.52 57.49, 233.67 69.53, 237.27 81.82 C240.88 94.1, 242.68 108.03, 241.85 120.47 C241.02 132.9, 237.82 145.01, 232.3 156.45 C226.79 167.88, 218.29 179.57, 208.76 189.07 C199.23 198.57, 187.2 207.61, 175.13 213.44 C163.05 219.26, 149.85 222.48, 136.32 224.02 C122.79 225.55, 107.45 225.52, 93.92 222.66 C80.39 219.81, 67.07 213.92, 55.16 206.89 C43.25 199.86, 30.74 190.9, 22.45 180.5 C14.15 170.09, 8.89 156.68, 5.39 144.47 C1.89 132.26, 0.46 120.27, 1.46 107.24 C2.45 94.21, 6.26 78.12, 11.34 66.29 C16.43 54.46, 22.82 45.23, 31.97 36.28 C41.12 27.32, 53.66 18.71, 66.27 12.57 C78.88 6.43, 93.67 0.89, 107.61 -0.56 C121.55 -2.01, 143.18 2.84, 149.92 3.87 C156.66 4.9, 148.64 3.95, 148.05 5.6" stroke="none" stroke-width="0" fill="#fffcd4"></path><path d="M115.83 0.99 C129.01 -1.36, 143.55 1.48, 156.69 5.21 C169.82 8.93, 183.37 15.58, 194.65 23.35 C205.93 31.11, 216.88 41.32, 224.36 51.79 C231.84 62.27, 236.35 73.95, 239.53 86.19 C242.7 98.44, 244.97 112.35, 243.41 125.29 C241.86 138.23, 236.59 152.29, 230.21 163.84 C223.83 175.39, 215.27 186.03, 205.12 194.6 C194.98 203.17, 182.24 210.31, 169.33 215.27 C156.42 220.24, 141.36 223.6, 127.68 224.37 C114 225.15, 100.39 223.48, 87.26 219.93 C74.14 216.37, 60.18 210.66, 48.94 203.04 C37.69 195.42, 27.5 184.97, 19.79 174.2 C12.09 163.44, 5.83 150.93, 2.69 138.47 C-0.45 126, -0.63 112.15, 0.96 99.41 C2.54 86.68, 5.79 73.51, 12.2 62.05 C18.61 50.59, 29.25 39.4, 39.42 30.66 C49.59 21.91, 58.55 14.83, 73.23 9.61 C87.92 4.39, 116.55 0.23, 127.55 -0.67 C138.55 -1.58, 139.55 2.04, 139.23 4.19 M125.42 0.82 C138.6 -0.54, 153.04 2.95, 165.87 7.55 C178.7 12.15, 192.06 19.57, 202.39 28.42 C212.72 37.28, 221.07 49.41, 227.85 60.71 C234.64 72, 240.84 83.77, 243.1 96.19 C245.36 108.62, 244.53 122.53, 241.4 135.25 C238.26 147.98, 231.58 161.39, 224.28 172.55 C216.98 183.71, 208.33 194.55, 197.61 202.22 C186.89 209.89, 173.01 214.92, 159.97 218.57 C146.94 222.22, 133.49 224.2, 119.38 224.11 C105.27 224.01, 88.34 222.39, 75.32 217.99 C62.3 213.59, 51.37 206.52, 41.27 197.71 C31.18 188.91, 21.15 176.79, 14.73 165.16 C8.3 153.53, 4.99 140.45, 2.74 127.93 C0.48 115.4, -1.31 102.51, 1.18 90.02 C3.66 77.53, 10.33 63.91, 17.65 52.96 C24.97 42.02, 34.35 32.01, 45.11 24.35 C55.88 16.69, 68.85 11.28, 82.22 6.99 C95.6 2.69, 117.92 -0.65, 125.35 -1.42 C132.77 -2.18, 126.75 0.22, 126.77 2.39" stroke="#1e1e1e" stroke-width="2" fill="none"></path></g><g transform="translate(91.73626708984375 70.935302734375) rotate(0 3.13970947265625 28.8538818359375)" stroke="none"><path fill="#1e1e1e" d="M 4.73,-0.89 Q 4.73,-0.89 5.27,1.80 5.81,4.51 6.57,8.39 7.32,12.27 7.84,17.45 8.36,22.62 8.46,26.28 8.56,29.94 8.75,32.47 8.94,35.00 9.03,38.12 9.11,41.25 9.28,43.38 9.44,45.51 9.71,48.62 9.98,51.73 10.81,53.79 11.64,55.85 11.58,56.52 11.52,57.19 11.30,57.83 11.08,58.47 10.71,59.04 10.35,59.60 9.86,60.07 9.37,60.53 8.78,60.86 8.19,61.19 7.54,61.37 6.89,61.56 6.22,61.58 5.54,61.60 4.88,61.46 4.23,61.32 3.62,61.02 3.01,60.73 2.49,60.30 1.97,59.87 1.57,59.32 1.17,58.78 0.92,58.16 0.66,57.53 0.55,56.87 0.45,56.20 1.99,53.61 3.53,51.03 4.39,50.76 5.26,50.49 6.16,50.51 7.07,50.53 7.92,50.83 8.77,51.14 9.48,51.70 10.19,52.27 10.68,53.03 11.17,53.79 11.39,54.66 11.62,55.54 11.55,56.44 11.48,57.35 11.13,58.18 10.78,59.01 10.17,59.69 9.57,60.37 8.79,60.82 8.00,61.27 7.11,61.44 6.23,61.62 5.33,61.50 4.43,61.38 3.62,60.99 2.81,60.59 2.16,59.95 1.52,59.31 1.11,58.51 0.70,57.70 0.58,56.80 0.45,55.90 0.62,55.01 0.78,54.12 1.22,53.33 1.66,52.54 2.34,51.94 3.01,51.33 3.84,50.97 4.66,50.60 5.57,50.53 6.47,50.45 7.35,50.66 8.23,50.87 8.99,51.36 9.76,51.84 10.33,52.54 10.90,53.25 11.22,54.09 11.53,54.94 11.56,55.85 11.59,56.75 11.33,57.62 11.07,58.49 10.55,59.22 10.02,59.96 10.83,57.91 11.64,55.85 11.58,56.52 11.52,57.19 11.30,57.83 11.08,58.47 10.71,59.04 10.35,59.60 9.86,60.07 9.37,60.53 8.78,60.86 8.19,61.19 7.54,61.37 6.89,61.56 6.22,61.58 5.54,61.60 4.89,61.46 4.23,61.32 3.62,61.02 3.01,60.73 2.49,60.30 1.98,59.87 1.57,59.32 1.17,58.78 0.92,58.16 0.66,57.53 0.55,56.87 0.45,56.20 -0.18,54.10 -0.82,52.00 -0.73,48.95 -0.64,45.91 -0.64,43.76 -0.65,41.62 -0.80,38.58 -0.95,35.53 -1.03,33.07 -1.11,30.61 -1.51,27.09 -1.91,23.57 -2.46,18.64 -3.02,13.71 -3.39,10.01 -3.76,6.32 -4.25,3.60 -4.73,0.89 -4.77,0.31 -4.81,-0.26 -4.71,-0.83 -4.61,-1.40 -4.37,-1.93 -4.14,-2.47 -3.78,-2.93 -3.42,-3.39 -2.97,-3.75 -2.51,-4.11 -1.98,-4.35 -1.46,-4.59 -0.88,-4.70 -0.31,-4.81 0.26,-4.78 0.84,-4.74 1.39,-4.57 1.95,-4.40 2.45,-4.11 2.95,-3.81 3.36,-3.40 3.77,-2.99 4.08,-2.49 4.38,-2.00 4.56,-1.45 4.73,-0.89 4.73,-0.89 L 4.73,-0.89 Z"></path></g><g transform="translate(152.7440185546875 70.98065185546875) rotate(0 3.60955810546875 27.131622314453125)" stroke="none"><path fill="#1e1e1e" d="M 4.61,-0.35 Q 4.61,-0.35 4.70,4.31 4.80,8.97 5.06,13.04 5.32,17.11 5.77,20.77 6.23,24.43 6.82,27.57 7.41,30.71 8.02,33.35 8.63,36.00 9.17,38.15 9.71,40.31 10.44,43.23 11.18,46.15 11.34,48.66 11.50,51.18 11.86,51.94 12.22,52.70 12.31,53.54 12.41,54.37 12.23,55.20 12.05,56.02 11.62,56.74 11.19,57.47 10.55,58.01 9.91,58.56 9.13,58.88 8.35,59.19 7.51,59.24 6.67,59.29 5.86,59.07 5.05,58.85 4.35,58.38 3.65,57.91 3.14,57.24 2.62,56.57 2.35,55.78 2.08,54.98 2.08,54.14 2.07,53.30 2.34,52.50 2.60,51.70 3.11,51.03 3.62,50.35 4.31,49.88 5.01,49.40 5.82,49.17 6.63,48.95 7.47,48.99 8.31,49.03 9.09,49.34 9.87,49.65 10.52,50.19 11.16,50.73 11.60,51.45 12.04,52.17 12.22,52.99 12.40,53.81 12.32,54.65 12.23,55.49 11.88,56.25 11.53,57.02 10.95,57.63 10.38,58.24 9.63,58.64 8.89,59.04 8.06,59.18 7.23,59.32 6.40,59.19 5.57,59.05 4.82,58.66 4.08,58.27 3.50,57.66 2.92,57.05 2.92,57.05 2.92,57.05 2.24,52.35 1.57,47.65 1.35,44.76 1.13,41.88 0.87,39.69 0.61,37.49 0.21,34.73 -0.17,31.97 -0.64,28.69 -1.12,25.41 -1.65,21.65 -2.18,17.89 -2.78,13.74 -3.37,9.60 -3.99,4.97 -4.61,0.35 -4.58,-0.20 -4.56,-0.76 -4.40,-1.29 -4.24,-1.83 -3.96,-2.31 -3.68,-2.79 -3.29,-3.19 -2.91,-3.59 -2.43,-3.89 -1.96,-4.18 -1.43,-4.36 -0.90,-4.53 -0.35,-4.57 0.20,-4.62 0.75,-4.53 1.30,-4.43 1.81,-4.21 2.33,-3.99 2.77,-3.66 3.21,-3.32 3.57,-2.89 3.92,-2.45 4.15,-1.95 4.39,-1.44 4.50,-0.89 4.61,-0.35 4.61,-0.35 L 4.61,-0.35 Z"></path></g><g transform="translate(73.57476806640625 174.118408203125) rotate(0 68.43353271484375 5.338287353515625)" stroke="none"><path fill="#1e1e1e" d="M 3.08,-1.76 Q 3.08,-1.76 4.71,0.86 6.34,3.50 8.08,5.33 9.82,7.15 12.09,8.96 14.35,10.76 17.13,12.55 19.92,14.34 23.19,15.98 26.46,17.62 30.22,18.99 33.97,20.36 38.40,21.40 42.83,22.45 47.82,23.27 52.82,24.08 57.83,24.60 62.84,25.12 67.33,25.28 71.82,25.44 75.71,25.05 79.60,24.67 83.22,23.68 86.85,22.70 90.67,21.29 94.49,19.88 98.45,18.27 102.42,16.65 106.06,15.11 109.70,13.57 112.80,12.04 115.90,10.51 118.23,8.92 120.56,7.33 122.10,5.65 123.64,3.96 124.78,2.07 125.91,0.18 126.75,-1.84 127.60,-3.87 128.72,-7.69 129.84,-11.52 131.19,-16.09 132.53,-20.66 133.08,-21.26 133.63,-21.86 134.35,-22.26 135.06,-22.65 135.86,-22.80 136.66,-22.94 137.47,-22.82 138.27,-22.70 139.00,-22.33 139.72,-21.96 140.29,-21.38 140.86,-20.80 141.22,-20.07 141.57,-19.33 141.67,-18.53 141.77,-17.72 141.61,-16.92 141.45,-16.12 141.04,-15.42 140.63,-14.71 140.02,-14.18 139.41,-13.64 138.66,-13.33 137.91,-13.01 137.09,-12.96 136.28,-12.90 135.49,-13.10 134.71,-13.31 134.03,-13.75 133.34,-14.20 132.84,-14.84 132.34,-15.48 132.07,-16.25 131.79,-17.01 131.78,-17.83 131.77,-18.64 132.01,-19.42 132.26,-20.19 132.74,-20.85 133.23,-21.51 133.89,-21.97 134.56,-22.44 135.34,-22.67 136.12,-22.90 136.93,-22.87 137.75,-22.84 138.51,-22.55 139.27,-22.26 139.90,-21.75 140.53,-21.23 140.96,-20.54 141.39,-19.85 141.58,-19.05 141.76,-18.26 141.69,-17.45 141.61,-16.64 141.28,-15.90 140.96,-15.15 140.96,-15.15 140.96,-15.15 140.52,-13.42 140.09,-11.69 138.71,-8.16 137.33,-4.63 136.33,-2.34 135.32,-0.05 133.93,2.43 132.54,4.92 130.66,7.22 128.79,9.52 126.46,11.39 124.12,13.26 121.30,14.74 118.48,16.22 115.19,17.57 111.89,18.93 108.23,20.38 104.57,21.83 100.54,23.54 96.51,25.25 92.42,26.82 88.33,28.40 84.24,29.40 80.16,30.41 75.92,30.80 71.68,31.18 66.99,31.11 62.30,31.03 57.11,30.62 51.92,30.20 46.70,29.52 41.48,28.84 36.65,27.93 31.82,27.03 27.50,25.78 23.19,24.53 19.41,22.82 15.62,21.11 12.37,19.07 9.12,17.02 6.43,14.68 3.75,12.34 1.78,9.80 -0.17,7.26 -1.63,4.51 -3.08,1.76 -3.25,1.37 -3.41,0.97 -3.48,0.55 -3.55,0.13 -3.51,-0.29 -3.48,-0.72 -3.34,-1.12 -3.20,-1.53 -2.97,-1.89 -2.74,-2.25 -2.43,-2.55 -2.12,-2.84 -1.75,-3.06 -1.38,-3.27 -0.97,-3.39 -0.55,-3.51 -0.13,-3.52 0.29,-3.54 0.71,-3.45 1.13,-3.36 1.52,-3.18 1.91,-2.99 2.24,-2.72 2.57,-2.45 2.82,-2.11 3.08,-1.76 3.08,-1.76 L 3.08,-1.76 Z"></path></g></svg>